<?xml version="1.0" encoding="utf-8"?> <svg xmlns="http://www.w3.org/2000/svg" width="30" height="30" fill="none"  ><path d="M19.787 19.617c-1.398 1.398-1.223 4.218-1.223 4.218h-7.088s.15-2.82-1.223-4.218c-1.522-1.348-2.496-3.295-2.496-5.466 0-3.993 3.245-7.238 7.238-7.238s7.238 3.245 7.238 7.238c0 2.171-.948 4.118-2.446 5.466z" fill="#ffd517"/><path d="M18.763 26.056a.67.67 0 0 1-.674.674h-6.165a.674.674 0 1 1 0-1.348h6.14c.374 0 .699.299.699.674zm-.923 2.796a.67.67 0 0 1-.674.674h-4.318a.674.674 0 1 1 0-1.348h4.318a.67.67 0 0 1 .674.674z" fill="#e5e5e5"/><path d="M20.161 19.867a7.72 7.72 0 0 0 2.546-5.715c0-4.243-3.469-7.712-7.712-7.712s-7.712 3.469-7.712 7.712a7.74 7.74 0 0 0 2.621 5.79c1.223 1.223 1.098 3.819 1.098 3.844 0 .125.05.25.125.349.1.1.225.15.349.15h7.063a.49.49 0 0 0 .349-.15c.099-.1.125-.225.125-.349 0-.025-.125-2.621 1.098-3.844.025-.025.05-.05.05-.075zm-.699-.624c-.05.025-.075.075-.1.125-1.098 1.173-1.273 3.095-1.298 3.993h-6.115c-.025-.924-.225-2.92-1.398-4.093-1.473-1.298-2.321-3.145-2.321-5.092a6.77 6.77 0 0 1 6.764-6.764 6.77 6.77 0 0 1 6.764 6.764c0 1.922-.824 3.794-2.296 5.067zM14.995 8.436c-.25 0-.474.2-.474.474 0 .25.2.474.474.474a5.07 5.07 0 0 1 5.067 5.067c0 .25.2.474.474.474.25 0 .474-.2.474-.474a6.02 6.02 0 0 0-6.015-6.015zm4.243 17.621c0-.649-.524-1.148-1.148-1.148h-6.165c-.649 0-1.148.524-1.148 1.148 0 .649.524 1.148 1.148 1.148h6.14a1.15 1.15 0 0 0 1.173-1.148zm-1.173.2h-6.14c-.125 0-.2-.1-.2-.2 0-.125.1-.2.2-.2h6.14c.125 0 .2.1.2.2.025.125-.075.2-.2.2zm-.899 1.447h-4.318c-.649 0-1.148.524-1.148 1.148 0 .649.524 1.148 1.148 1.148h4.318c.649 0 1.148-.524 1.148-1.148a1.16 1.16 0 0 0-1.148-1.148zm0 1.348h-4.318c-.125 0-.2-.1-.2-.2 0-.125.1-.2.2-.2h4.318c.125 0 .2.1.2.2 0 .125-.075.2-.2.2zM15.469 3.669V.474c0-.25-.2-.474-.474-.474-.25 0-.474.2-.474.474v3.22c0 .25.2.474.474.474.274-.025.474-.225.474-.499zm7.388-1.298c-.225-.15-.499-.075-.649.125l-1.772 2.671c-.15.225-.075.499.125.649a.48.48 0 0 0 .25.075.52.52 0 0 0 .399-.2l1.772-2.671c.15-.2.075-.499-.125-.649zM9.354 5.79a.48.48 0 0 0 .399-.724L8.031 2.371a.48.48 0 0 0-.649-.15.48.48 0 0 0-.15.649l1.722 2.696a.48.48 0 0 0 .399.225zM2.74 8.037l2.82 1.522c.075.05.15.05.225.05.175 0 .324-.1.424-.25a.47.47 0 0 0-.2-.649l-2.82-1.522a.47.47 0 0 0-.649.2c-.1.25-.025.524.2.649zm21.464 1.597c.075 0 .15-.025.225-.05l2.82-1.522c.225-.125.325-.399.2-.649-.125-.225-.399-.324-.649-.2l-2.82 1.522c-.225.125-.324.399-.2.649.075.15.25.25.424.25z" fill="#210b20"/></svg>