<svg width="78" height="55" viewBox="0 0 78 55" fill="none" xmlns="http://www.w3.org/2000/svg">
<path d="M60.9465 55H48.3396H44.9448H44.2117V38.6127H49.7421C51.1447 38.6127 51.9734 37.0682 51.1447 35.9562L40.3866 21.5305C39.7013 20.6038 38.2828 20.6038 37.5975 21.5305L26.8394 35.9562C26.0106 37.0682 26.8235 38.6127 28.2419 38.6127H33.7724V55H33.0392H29.6445H15.0294C6.66204 54.5521 0 46.9685 0 38.7518C0 33.0834 3.17164 28.141 7.87331 25.469C7.44299 24.3415 7.21986 23.1368 7.21986 21.8703C7.21986 16.0783 12.049 11.3985 18.0257 11.3985C19.3167 11.3985 20.5599 11.6147 21.7233 12.0317C25.1819 4.92699 32.6408 0 41.311 0C52.5313 0.0154451 61.7752 8.34036 62.8271 18.9511C71.4495 20.3875 78 28.1255 78 36.8829C78 46.2426 70.4773 54.3513 60.9465 55Z" fill="black"/>
<path d="M56.9776 21.8877C56.4655 21.239 55.8457 20.6384 55.1988 20.0619C54.552 19.4854 53.8781 18.9327 53.1504 18.4763C49.1344 15.6176 44.202 14 39 14C32.8816 14 27.1405 16.1941 22.8012 20.0619C18.4618 23.9297 16 29.0466 16 34.5C16 39.1605 17.8148 43.5568 21.0224 47.1363C21.5614 47.7608 22.1543 48.3614 22.8012 48.9381C23.448 49.5146 24.1219 50.0431 24.8227 50.5236C28.8386 53.3824 33.7711 55 39 55C45.1184 55 50.8595 52.8059 55.1988 48.9381C59.5383 45.0702 62 39.9532 62 34.5C62 29.8635 60.1852 25.4672 56.9776 21.8877ZM21.4805 34.5C21.4805 30.3199 23.3133 26.4041 26.6017 23.4491C29.9168 20.5184 34.3102 18.8848 39 18.8848C42.7735 18.8848 46.3581 19.9418 49.3231 21.8877L24.8766 43.7009C22.6664 41.0583 21.4805 37.8632 21.4805 34.5ZM51.3983 45.5507C48.0832 48.4816 43.6898 50.1152 39 50.1152C35.2265 50.1152 31.6419 49.0582 28.6769 47.0883L53.1504 25.299C55.3336 27.9415 56.5195 31.1366 56.5195 34.5C56.5195 38.6801 54.6867 42.5959 51.3983 45.5507Z" fill="#FD003A"/>
</svg>
