<svg viewBox="0 0 24 24" fill="#000000" xmlns="http://www.w3.org/2000/svg">
                                        <path
                                            d="M20.436 5.83c.92-.552 1.6-1.437 1.994-2.498-.854.508-1.862.884-2.936 1.105A4.286 4.286 0 0016.251 3c-2.52 0-4.558 1.99-4.558 4.533 0 .376.088.686.132 1.084A13.15 13.15 0 012.534 3.84c-.416.664-.614 1.438-.614 2.3 0 1.548.767 2.941 2.016 3.76a4.737 4.737 0 01-2.06-.598v.067c0 2.189 1.556 4.046 3.616 4.466-.35.089-.789.177-1.183.177-.285 0-.614-.066-.877-.088.592 1.813 2.28 3.162 4.23 3.184-1.49 1.216-3.485 1.924-5.61 1.924-.35 0-.745 0-1.052-.022C2.994 20.314 5.382 21 7.946 21c8.261 0 12.84-6.9 12.84-12.936 0-.155 0-.376-.021-.597A9.469 9.469 0 0023 5.1c-.767.376-1.665.597-2.564.73z">
                                        </path>
                                    </svg>