<?xml version="1.0" encoding="iso-8859-1"?>
<!-- Generator: Adobe Illustrator 19.0.0, SVG Export Plug-In . SVG Version: 6.00 Build 0)  -->
<svg version="1.1" id="Capa_1" xmlns="http://www.w3.org/2000/svg" xmlns:xlink="http://www.w3.org/1999/xlink" x="0px" y="0px"
	 viewBox="0 0 498.036 498.036" style="enable-background:new 0 0 498.036 498.036;" xml:space="preserve">
<g>
	<path style="fill:#ff7675" d="M233.503,477.091H124.121c-21.721,0-38.788-17.067-38.788-38.788v-50.424
		c0-4.655,3.103-7.758,7.758-7.758s7.758,3.103,7.758,7.758v50.424c0,13.188,10.085,23.273,23.273,23.273h109.382
		c4.655,0,7.758,3.103,7.758,7.758C241.261,473.212,238.158,477.091,233.503,477.091z"/>
	<path style="fill:#ff7675" d="M109.382,417.358l-16.291-20.945L76.8,417.358c-2.327,3.103-7.758,3.879-10.861,1.552
		c-3.103-2.327-3.879-7.758-1.552-10.861l22.497-28.703c3.103-3.879,9.309-3.879,12.412,0l22.497,28.703
		c2.327,3.103,2.327,8.533-1.552,10.861C117.139,421.236,111.709,420.461,109.382,417.358z"/>
</g>
<path style="fill:#ffffff" d="M244.364,7.758H47.321C25.6,7.758,8.533,24.824,8.533,46.545v268.412
	c0,21.721,17.067,38.788,38.788,38.788h197.042c21.721,0,38.788-17.067,38.788-38.788V46.545
	C283.151,24.824,266.085,7.758,244.364,7.758z"/>
<path style="fill:#ff7675" d="M244.364,361.503H47.321c-25.6,0-46.545-20.945-46.545-46.545V46.545C0.776,20.945,21.721,0,47.321,0
	h197.042c25.6,0,46.545,20.945,46.545,46.545v268.412C290.909,340.558,269.964,361.503,244.364,361.503z M47.321,15.515
	c-17.067,0-31.03,13.964-31.03,31.03v268.412c0,17.067,13.964,31.03,31.03,31.03h197.042c17.067,0,31.03-13.964,31.03-31.03V46.545
	c0-17.067-13.964-31.03-31.03-31.03H47.321z"/>
<path style="fill:#FFFFFF;" d="M47.321,322.715c-4.655,0-7.758-3.103-7.758-7.758V46.545c0-4.655,3.103-7.758,7.758-7.758h197.042
	c4.655,0,7.758,3.103,7.758,7.758v268.412c0,4.655-3.103,7.758-7.758,7.758H47.321z"/>
<g>
	<rect x="67.491" y="79.127" style="fill:#ff7675" width="157.479" height="10.085"/>
	<rect x="67.491" y="117.915" style="fill:#ff7675" width="157.479" height="10.085"/>
	<rect x="67.491" y="155.927" style="fill:#ff7675" width="157.479" height="10.085"/>
	<rect x="67.491" y="194.715" style="fill:#ff7675" width="157.479" height="10.085"/>
	<rect x="67.491" y="233.503" style="fill:#ff7675" width="157.479" height="10.085"/>
	<rect x="67.491" y="271.515" style="fill:#ff7675" width="157.479" height="10.085"/>
</g>
<path style="fill:#FFFFFF;" d="M399.515,166.788H259.103c-14.739,0-26.376,11.636-26.376,26.376v271.515
	c0,14.739,11.636,26.376,26.376,26.376h204.024c14.739,0,26.376-11.636,26.376-26.376V256L399.515,166.788z"/>
<path style="fill:#ff7675" d="M463.127,498.036H259.103c-18.618,0-34.133-15.515-34.133-34.133V192.388
	c0-18.618,15.515-34.133,34.133-34.133h140.412c2.327,0,3.879,0.776,5.43,2.327l89.988,89.988c1.551,1.552,2.327,3.103,2.327,5.43
	v207.903C497.261,483.297,481.745,498.036,463.127,498.036z M259.103,174.545c-10.085,0-18.618,8.533-18.618,18.618v271.515
	c0,10.085,8.533,18.618,18.618,18.618h204.024c10.085,0,18.618-8.533,18.618-18.618v-204.8l-85.333-85.333L259.103,174.545
	L259.103,174.545z"/>
<path style="fill:#ff7675" d="M397.964,175.321v55.855c0,14.739,12.412,27.152,27.152,27.152h55.855L397.964,175.321z"/>
<g>
	<rect x="270.739" y="215.661" style="fill:#ff7675" width="108.606" height="10.861"/>
	<rect x="266.085" y="252.121" style="fill:#ff7675" width="108.606" height="10.861"/>
	<rect x="261.43" y="295.564" style="fill:#ff7675" width="196.267" height="9.309"/>
	<rect x="261.43" y="339.782" style="fill:#ff7675" width="196.267" height="9.309"/>
	<rect x="261.43" y="383.224" style="fill:#ff7675" width="196.267" height="9.309"/>
	<rect x="261.43" y="426.667" style="fill:#ff7675" width="97.745" height="9.309"/>
</g>
<g>
	<path style="fill:#ff7675" d="M425.891,135.758c-4.655,0-7.758-3.103-7.758-7.758V77.576c0-13.188-10.085-23.273-23.273-23.273
		H283.151c-4.655,0-7.758-3.103-7.758-7.758s3.103-7.758,7.758-7.758h111.709c21.721,0,38.788,17.067,38.788,38.788V128
		C433.648,132.655,429.77,135.758,425.891,135.758z"/>
	<path style="fill:#ff7675" d="M425.891,135.758c-2.327,0-4.655-0.776-6.206-3.103l-22.497-28.703
		c-2.327-3.103-2.327-8.533,1.552-10.861c3.103-2.327,8.533-2.327,10.861,1.552l16.291,20.945l16.291-20.945
		c2.327-3.103,7.758-3.879,10.861-1.552c3.103,2.327,3.879,7.758,1.552,10.861l-22.497,28.703
		C430.545,134.982,428.218,135.758,425.891,135.758z"/>
</g>
<g>
</g>
<g>
</g>
<g>
</g>
<g>
</g>
<g>
</g>
<g>
</g>
<g>
</g>
<g>
</g>
<g>
</g>
<g>
</g>
<g>
</g>
<g>
</g>
<g>
</g>
<g>
</g>
<g>
</g>
</svg>
