<svg viewBox="0 0 24 24" fill="#000000" xmlns="http://www.w3.org/2000/svg">
                                        <path
                                            d="M23 23h-5.118v-7.339c0-1.92-.8-3.232-2.561-3.232-1.347 0-2.096.885-2.444 1.738-.131.306-.11.732-.11 1.159V23H7.695s.065-13 0-14.182h5.07v2.226c.3-.973 1.92-2.362 4.506-2.362 3.208 0 5.728 2.04 5.728 6.432V23zM3.38 6.773h-.03C1.926 6.773 1 5.72 1 4.388 1 3.03 1.952 2 3.407 2 4.86 2 5.754 3.027 5.783 4.384c0 1.333-.923 2.389-2.404 2.389zM1 8.682h4.783V23H1V8.682z">
                                        </path>
                                    </svg>