<svg width="50" height="47" viewBox="0 0 50 47" fill="none" xmlns="http://www.w3.org/2000/svg">
<g clip-path="url(#clip0)">
<path d="M15.7703 0C14.2015 0 12.9178 1.28361 12.9178 2.85247V42.7872C12.9178 44.3558 14.2015 45.6395 15.7703 45.6395H44.295C45.8639 45.6395 47.1476 44.3558 47.1476 42.7872V11.4099L35.7378 0H15.7703Z" fill="#D7221A"/>
<path d="M38.5901 11.4099H47.1477L35.7378 0V8.55741C35.7378 10.1263 37.0212 11.4099 38.5901 11.4099Z" fill="#FB716B"/>
<path d="M47.1476 19.9673L38.5901 11.4099H47.1476V19.9673Z" fill="#BE211A"/>
<path d="M33.1977 10.7558H17.7325V11.6278H33.1977C33.6453 11.6278 34.0116 11.2354 34.0116 10.7558V9.88367C34.0116 10.3633 33.6453 10.7558 33.1977 10.7558Z" fill="#BD220E"/>
<path d="M34.0116 9.95645C34.0116 10.3961 33.6409 10.7559 33.188 10.7559H15.0678C14.6148 10.7559 14.2441 10.3961 14.2441 9.95645V1.96226C14.2441 1.52258 14.6148 1.16284 15.0678 1.16284H33.188C33.6409 1.16284 34.0116 1.52258 34.0116 1.96226V9.95645Z" fill="white"/>
<path d="M33.8663 9.95636C33.8663 10.3117 33.5648 10.6104 33.1881 10.6104H15.0678C14.691 10.6104 14.3895 10.3117 14.3895 9.95636V1.96218C14.3895 1.60683 14.691 1.30811 15.0678 1.30811H33.1881C33.5648 1.30811 33.8663 1.60683 33.8663 1.96218V9.95636Z" stroke="#898989" stroke-opacity="0.25"/>
<path d="M17.7659 4.42455C17.7659 4.20638 17.9378 3.96838 18.2146 3.96838H19.741C20.6004 3.96838 21.3739 4.54356 21.3739 5.64597C21.3739 6.69054 20.6004 7.27234 19.741 7.27234H18.6377V8.14501C18.6377 8.43588 18.4526 8.60036 18.2146 8.60036C17.9964 8.60036 17.7659 8.43588 17.7659 8.14501V4.42455ZM18.6377 4.80056V6.44676H19.741C20.1839 6.44676 20.5343 6.05585 20.5343 5.64597C20.5343 5.18402 20.1839 4.80056 19.741 4.80056H18.6377Z" fill="#D7221A"/>
<path d="M22.6681 8.6004C22.4499 8.6004 22.2119 8.48141 22.2119 8.19133V4.43784C22.2119 4.20066 22.4499 4.02795 22.6681 4.02795H24.1812C27.2009 4.02795 27.1348 8.6004 24.2407 8.6004H22.6681ZM23.0846 4.8345V7.79467H24.1812C25.9654 7.79467 26.0447 4.8345 24.1812 4.8345H23.0846Z" fill="#D7221A"/>
<path d="M28.2057 4.88727V5.93762H29.8906C30.1287 5.93762 30.3668 6.17564 30.3668 6.40619C30.3668 6.62436 30.1287 6.80285 29.8906 6.80285H28.2057V8.19038C28.2057 8.42177 28.0413 8.59945 27.8099 8.59945C27.519 8.59945 27.3413 8.42177 27.3413 8.19038V4.43689C27.3413 4.19971 27.5198 4.02698 27.8099 4.02698H30.1296C30.4206 4.02698 30.5924 4.19971 30.5924 4.43689C30.5924 4.64843 30.4206 4.88645 30.1296 4.88645H28.2057V4.88727Z" fill="#D7221A"/>
<path d="M15.1935 46.1043C15.0036 46.1043 14.8515 46.0663 14.6617 46.0282C6.03953 43.559 0 35.5825 0 26.5805V17.6163C0 16.7805 0.569881 16.0209 1.36741 15.793L14.6719 11.9917C15.0128 11.8942 15.3743 11.8942 15.7154 11.9917L29.0198 15.793C29.8174 16.0209 30.3872 16.7805 30.3872 17.6163V26.5805C30.3872 35.5825 24.3477 43.559 15.7255 46.0282C15.5353 46.0663 15.3833 46.1043 15.1935 46.1043Z" fill="#8DF4E6"/>
<path d="M30.3869 26.5807V17.6165C30.3869 16.7807 29.8171 16.0211 29.0196 15.7932L15.7151 11.9919C15.5446 11.9431 15.369 11.9188 15.1934 11.9188V46.1044C15.3833 46.1044 15.5353 46.0663 15.7251 46.0282C24.3474 43.5593 30.3869 35.5829 30.3869 26.5807Z" fill="#7ADFE3"/>
<path d="M15.1935 42.2204C8.45718 40.0486 3.79834 33.6939 3.79834 26.5807V19.049L15.1935 15.7933L26.5886 19.049V26.5807C26.5886 33.6939 21.9298 40.0486 15.1935 42.2204Z" fill="#7ADFE3"/>
<path d="M26.5886 26.5807V19.049L15.1935 15.7933V42.2204C21.9298 40.0486 26.5886 33.6939 26.5886 26.5807Z" fill="#55B3DC"/>
<path d="M13.2943 34.7093C12.8083 34.7093 12.3224 34.5235 11.9515 34.1526L8.15315 30.3543C7.41135 29.6125 7.41135 28.4105 8.15315 27.6687C8.89499 26.9269 10.0969 26.9269 10.8387 27.6687L13.2944 30.1244L19.5484 23.8703C20.2902 23.1285 21.4922 23.1285 22.234 23.8703C22.9758 24.6122 22.9758 25.8141 22.234 26.5559L14.6373 34.1526C14.266 34.5235 13.7802 34.7093 13.2943 34.7093Z" fill="#F3F5F9"/>
<path d="M19.5482 23.8704L15.1934 28.2253V33.5964L22.2336 26.5562C22.9755 25.8143 22.9755 24.6124 22.2336 23.8706C21.4918 23.1287 20.2901 23.1285 19.5482 23.8704Z" fill="#E1E6F0"/>
</g>
<defs>
<clipPath id="clip0">
<rect width="50" height="46.2209" fill="white"/>
</clipPath>
</defs>
</svg>
