<svg xmlns="http://www.w3.org/2000/svg" xmlns:xlink="http://www.w3.org/1999/xlink" viewBox="0 0 36 36" fill="#3d99f5"><path d="M18.6148861,25 L17,25 L17,26.118552 L18.6148861,25 Z M21,23.3479492 L21.5023443,23 L24.9637224,26.5962889 L30.1557894,23 L31,23.8771146 L31,13 L21,13 L21,23.3479492 Z M21,11 L33,11 L33,33 L15,33 L15,25 L3,25 L3,3 L21,3 L21,11 Z M17,28.2796526 L17,31 L31,31 L31,26.4200749 L29.9352687,25.3138445 L24.7432016,28.9101334 L21.2818236,25.3138445 L17,28.2796526 Z M28,21 C26.8954305,21 26,20.1045695 26,19 C26,17.8954305 26.8954305,17 28,17 C29.1045695,17 30,17.8954305 30,19 C30,20.1045695 29.1045695,21 28,21 Z M5,5 L5,23 L19,23 L19,5 L5,5 Z"></path></svg>