<svg xmlns="http://www.w3.org/2000/svg" xmlns:xlink="http://www.w3.org/1999/xlink" viewBox="0 0 36 36" fill="#9966ff"><path d="M16.9262716,17.4240256 L11.5714286,3 L12.8010826,3.61906915 C13.7083139,4.0758146 14.4065546,4.85233414 14.7557061,5.79282296 L18,14.5317866 L21.2442939,5.79282296 C21.5934454,4.85233414 22.2916861,4.0758146 23.1989174,3.61906915 L24.4285714,3 L19.0737284,17.4240256 L21.6039599,24.2395614 C22.2818538,22.9954151 23.4111339,21.983013 24.8681255,21.463096 C28.0099341,20.3419641 31.4858355,21.935398 32.6317685,25.0221303 C33.7777015,28.1088625 32.1597245,31.5200104 29.0179159,32.6411423 C25.8761072,33.7622742 22.4002059,32.1688403 21.2542729,29.0821081 L18,20.3162647 L14.7457271,29.0821081 C13.5997941,32.1688403 10.1238928,33.7622742 6.98208411,32.6411423 C3.84027545,31.5200104 2.22229854,28.1088625 3.36823152,25.0221303 C4.5141645,21.935398 7.99006587,20.3419641 11.1318745,21.463096 C12.5888661,21.983013 13.7181462,22.9954151 14.3960401,24.2395614 L16.9262716,17.4240256 Z M7.67371585,30.7781346 C9.76825495,31.5255559 12.0855225,30.4632666 12.8494779,28.4054451 C13.6134332,26.3476236 12.5347819,24.073525 10.4402428,23.3261037 C8.34570369,22.5786825 6.02843611,23.6409717 5.26448078,25.6987933 C4.50052546,27.7566148 5.57917674,30.0307133 7.67371585,30.7781346 Z M28.3262842,30.7781346 C30.4208233,30.0307133 31.4994745,27.7566148 30.7355192,25.6987933 C29.9715639,23.6409717 27.6542963,22.5786825 25.5597572,23.3261037 C23.4652181,24.073525 22.3865668,26.3476236 23.1505221,28.4054451 C23.9144775,30.4632666 26.231745,31.5255559 28.3262842,30.7781346 Z"></path></svg>