<svg viewBox="0 0 24 24" fill="#000000" xmlns="http://www.w3.org/2000/svg">
                                        <path fill-rule="evenodd" clip-rule="evenodd"
                                            d="M21.38 4.48A2.94 2.94 0 0123.5 6.5c.5 1.78.5 5.5.5 5.5s0 3.72-.5 5.5a2.94 2.94 0 01-2.12 2.02C19.5 20 12 20 12 20s-7.5 0-9.38-.48A2.94 2.94 0 01.5 17.5C0 15.72 0 12 0 12s0-3.72.5-5.5a2.94 2.94 0 012.12-2.02C4.5 4 12 4 12 4s7.5 0 9.38.48zM17 12l-8 4V8l8 4z">
                                        </path>
                                    </svg>