<svg id="Capa_1" enable-background="new 0 0 512.104 512.104" height="512" viewBox="0 0 512.104 512.104" width="512" xmlns="http://www.w3.org/2000/svg"><g><path d="m506.755 395.545c-4.282-11.759-16.463-18.674-28.755-16.325l-128.923 24.643c12.22-2.107 21.149-12.706 21.149-25.107 0-14.793-12.557-26.477-27.312-25.412l-29.648 2.14c-14.388 1.039-28.743-2.411-41.088-9.873l-35.054-21.188c-21.339-12.898-47.799-13.959-70.101-2.811l-57.455 28.72-20.302 13.935v93.882l20.302 21.883 33.238 13.557c48.503 19.783 102.571 21.12 151.992 3.758l196.444-69.011c13.398-4.706 20.372-19.448 15.513-32.791z" fill="#f1d0a5"/><path d="m506.755 395.545c-.642-1.764-1.481-3.403-2.453-4.934-2.646 6.563-7.991 12.004-15.2 14.536l-196.444 69.011c-56.204 19.745-104.988 11.422-134.766 2.283-18.075-5.547-30.398-22.252-30.398-41.159v-93.908l-17.924 8.96v107.383 22.316l33.238 13.557c48.503 19.783 102.571 21.12 151.992 3.758l196.444-69.011c13.396-4.707 20.37-19.449 15.511-32.792z" fill="#f1b986"/><g><g><path d="m256.736 424.845c-10.291 0-20.576-.881-30.794-2.645l-24.389-4.208c-4.144-.715-6.922-4.653-6.208-8.797.715-4.144 4.653-6.919 8.797-6.208l24.389 4.208c18.705 3.229 37.676 3.229 56.383.005l62.869-10.839c4.155-.717 8.082 2.066 8.796 6.209.715 4.144-2.065 8.082-6.209 8.796l-62.869 10.839c-10.207 1.76-20.488 2.64-30.765 2.64z" fill="#f1b986"/></g></g><path d="m96.415 512.104h-79.46c-7.264 0-13.153-5.889-13.153-13.153v-174.09c0-7.264 5.889-13.153 13.153-13.153h79.46c7.264 0 13.153 5.889 13.153 13.153v174.091c0 7.263-5.888 13.152-13.153 13.152z" fill="#365e7d"/><path d="m96.415 311.708h-22.821c7.264 0 13.153 5.889 13.153 13.153v174.091c0 7.264-5.889 13.153-13.153 13.153h22.821c7.264 0 13.153-5.889 13.153-13.153v-174.091c0-7.265-5.888-13.153-13.153-13.153z" fill="#2b4d66"/><g><path d="m68.903 475.378c-4.205 0-7.613-3.408-7.613-7.613v-19.228c0-4.205 3.408-7.613 7.613-7.613s7.613 3.408 7.613 7.613v19.228c.001 4.205-3.408 7.613-7.613 7.613z" fill="#fff6f4"/></g><path d="m394.724 170.99c0-46.528-37.403-84.319-83.781-84.948-46.578-.631-85.302 36.853-86.116 83.427-.525 30.021 14.529 56.558 37.61 72.072 3.569 2.399 5.734 6.393 5.734 10.693v12.34l12.123 12.334h53.473l17.6-12.334v-12.341c0-4.291 2.152-8.286 5.714-10.679 22.702-15.249 37.643-41.16 37.643-70.564z" fill="#f6e266"/><path d="m310.943 86.043c-4.389-.059-8.707.221-12.932.814 41.392 5.693 73.281 41.177 73.281 84.133 0 29.404-14.941 55.315-37.643 70.565-3.562 2.393-5.714 6.387-5.714 10.679v12.341l-17.6 12.334h23.432l17.6-12.334v-12.341c0-4.291 2.152-8.286 5.714-10.679 22.702-15.25 37.643-41.161 37.643-70.565 0-46.528-37.402-84.319-83.781-84.947z" fill="#ecbe6b"/><g><path d="m309.769 282.34c-4.205 0-7.613-3.408-7.613-7.613v-68.872c0-4.205 3.408-7.613 7.613-7.613s7.613 3.408 7.613 7.613v68.872c0 4.205-3.408 7.613-7.613 7.613z" fill="#4a80aa"/></g><g><path d="m309.769 212.084c-14.115 0-25.598-11.483-25.598-25.598 0-4.205 3.408-7.613 7.613-7.613s7.613 3.408 7.613 7.613c0 5.719 4.653 10.372 10.372 10.372s10.371-4.653 10.371-10.372c0-4.205 3.408-7.613 7.613-7.613s7.613 3.408 7.613 7.613c.001 14.114-11.483 25.598-25.597 25.598z" fill="#4a80aa"/></g><path d="m324.779 316.93h-30.02c-14.684 0-26.588-11.904-26.588-26.588v-25.767h83.196v25.767c0 14.685-11.904 26.588-26.588 26.588z" fill="#365e7d"/><path d="m327.935 264.576v25.767c0 14.684-11.904 26.588-26.588 26.588h23.432c14.684 0 26.588-11.904 26.588-26.588v-25.767z" fill="#2b4d66"/><g><g><path d="m309.769 47.973c-4.205 0-7.613-3.408-7.613-7.613v-32.747c0-4.205 3.408-7.613 7.613-7.613s7.613 3.408 7.613 7.613v32.747c0 4.205-3.408 7.613-7.613 7.613z" fill="#dd636e"/></g><g><path d="m398.753 84.83c-1.948 0-3.897-.743-5.384-2.229-2.973-2.974-2.973-7.794 0-10.767l23.155-23.155c2.974-2.972 7.794-2.972 10.767 0 2.973 2.974 2.973 7.794 0 10.767l-23.155 23.155c-1.486 1.486-3.435 2.229-5.383 2.229z" fill="#dd636e"/></g><g><path d="m220.785 84.831c-1.948 0-3.897-.743-5.384-2.229l-23.156-23.156c-2.973-2.974-2.973-7.794 0-10.767 2.974-2.972 7.794-2.972 10.768 0l23.156 23.156c2.973 2.974 2.973 7.794 0 10.767-1.487 1.486-3.436 2.229-5.384 2.229z" fill="#dd636e"/></g><g><path d="m183.927 173.815h-32.747c-4.205 0-7.613-3.408-7.613-7.613s3.408-7.613 7.613-7.613h32.747c4.205 0 7.613 3.408 7.613 7.613s-3.408 7.613-7.613 7.613z" fill="#dd636e"/></g><g><path d="m468.357 173.815h-32.746c-4.205 0-7.613-3.408-7.613-7.613s3.408-7.613 7.613-7.613h32.746c4.205 0 7.613 3.408 7.613 7.613s-3.408 7.613-7.613 7.613z" fill="#dd636e"/></g></g></g></svg>