<?xml version="1.0" encoding="utf-8"?> <svg xmlns="http://www.w3.org/2000/svg" width="30" height="30" fill="none"  ><g clip-path="url(#A)"><path d="M23.55 8.761a9.37 9.37 0 0 0-18.547 1.846 7.98 7.98 0 0 0 .027.656c-3.088.327-5.326 3.095-4.999 6.182.303 2.862 2.718 5.033 5.596 5.03h.656l-.031-.625c0-4.485 3.636-8.12 8.12-8.12a8.12 8.12 0 0 1 8.12 8.12c0 .211-.016.417-.031.625h.656c3.791.01 6.872-3.054 6.882-6.845.01-3.637-2.819-6.651-6.45-6.87z" fill="#bbdefb"/><path d="M14.373 28.722c3.795 0 6.871-3.076 6.871-6.871s-3.076-6.871-6.871-6.871-6.871 3.076-6.871 6.871 3.076 6.871 6.871 6.871z" fill="#4caf50"/><g fill="#fafafa"><path d="M14.373 26.224c-.345 0-.625-.28-.625-.625v-7.496c0-.345.28-.625.625-.625s.625.28.625.625v7.496c0 .345-.28.625-.625.625z"/><path d="M16.871 21.226c-.166 0-.325-.065-.442-.182l-2.056-2.058-2.056 2.058c-.248.24-.644.233-.883-.015-.234-.242-.234-.626 0-.868l2.499-2.499c.244-.244.639-.244.883 0l2.499 2.499c.243.244.243.64-.001.883-.117.117-.276.182-.441.182z"/></g></g><defs><clipPath id="A"><path fill="#fff" d="M0 0h30v30H0z"/></clipPath></defs></svg>