<?xml version="1.0" encoding="utf-8"?> <svg xmlns="http://www.w3.org/2000/svg" width="30" height="30" fill="none"  ><path d="M10.313 23.438h9.375v5.625h-9.375v-5.625z" fill="#d7e1f2"/><path d="M30 21.563H0V5.625C0 4.589.839 3.75 1.875 3.75h26.25c1.036 0 1.875.839 1.875 1.875v15.938z" fill="#80deea"/><path d="M30 11.25h-9.375V1.875C20.625.839 21.464 0 22.5 0h5.625C29.161 0 30 .839 30 1.875v9.375z" fill="#48c8ef"/><path d="M20.625 10.313v2.813c0 1.036.839 1.875 1.875 1.875h5.625C29.161 15 30 14.161 30 13.125v-2.812h-9.375z" fill="#e4edfb"/><path d="M18.201 12.188H9.375a.94.94 0 0 1-.937-.937.94.94 0 0 1 .938-.937h4.299L12.462 9.1l1.326-1.326 4.413 4.413zm-9.489 6.287l-4.413-4.413h8.826a.94.94 0 0 1 .938.938.94.94 0 0 1-.937.938h-4.3l1.212 1.212-1.326 1.326zm-4.024-8.162h1.875v1.875H4.688v-1.875zm11.25 3.75h1.875v1.875h-1.875v-1.875z" fill="#fff"/><path d="M21.563 30H8.438a.94.94 0 0 1-.937-.937.94.94 0 0 1 .938-.937h13.125a.94.94 0 0 1 .938.938.94.94 0 0 1-.937.938zm6.562-4.687H1.875C.839 25.313 0 24.473 0 23.438v-2.812h30v2.813c0 1.036-.839 1.875-1.875 1.875z" fill="#e4edfb"/></svg>