<?xml version="1.0" encoding="utf-8"?> <svg xmlns="http://www.w3.org/2000/svg" width="30" height="30" fill="none"  ><g clip-path="url(#A)"><g fill="#c9e0fd"><path d="M14.63 10.411l-2.705-2.552c-.335-.316-.863-.301-1.18.034l-.708.75c-.316.335-.301.863.034 1.18l2.705 2.552 1.853-1.964zm9.733 0l2.705-2.552c.335-.316.863-.301 1.18.034l.708.75c.316.335.301.863-.034 1.18l-2.705 2.552-1.853-1.964z"/></g><g fill="#ffd064"><path d="M6.518 23.659h11.436v2.251H6.518c-.622 0-1.126-.504-1.126-1.126s.504-1.125 1.126-1.125h0zm-2.469-4.292h13.905v2.251H4.049c-.622 0-1.126-.504-1.126-1.126s.504-1.126 1.126-1.126h0zm-2.923-4.291h16.828v2.251H1.126C.504 17.327 0 16.823 0 16.202s.504-1.126 1.126-1.126h0z"/></g><path d="M17.747 3.645h3.637v4.054h-3.637V3.645z" fill="#eaf2ff"/><path d="M19.889 3.645V2.566l-.324-.36h-2.476a1.44 1.44 0 0 0-1.439 1.439 1.44 1.44 0 0 0 1.439 1.439h1.361a1.44 1.44 0 0 0 1.439-1.439h0z" fill="#e07f84"/><path d="M22.042 2.206h-2.477v1.439a1.44 1.44 0 0 1-1.439 1.439h3.916a1.44 1.44 0 0 0 1.439-1.439 1.44 1.44 0 0 0-1.439-1.439h0z" fill="#db636e"/><path d="M26.691 17.36c0-5.059-3.532-9.293-8.264-10.373a10.44 10.44 0 0 0 0 20.746c4.732-1.079 8.264-5.313 8.264-10.373h0z" fill="#e07f84"/><path d="M24.153 24.257c1.582-1.857 2.538-4.265 2.538-6.896s-.955-5.039-2.538-6.896c-1.313-.875-2.891-1.386-4.588-1.386-1.844 0-3.548.603-4.925 1.623-.574.425-1.09.922-1.537 1.478-1.139 1.419-1.82 3.22-1.82 5.181 0 4.574 3.708 8.282 8.282 8.282 1.697 0 3.274-.51 4.588-1.386z" fill="#eaf2ff"/><path d="M19.566 6.926c-.669 0-1.322.064-1.956.184a10.44 10.44 0 0 1 0 20.501c.634.12 1.287.184 1.956.184C25.329 27.795 30 23.123 30 17.361S25.329 6.926 19.566 6.926h0z" fill="#db636e"/><path d="M22.754 9.715c2.051 1.905 3.335 4.625 3.335 7.646s-1.284 5.74-3.335 7.646c2.991-1.249 5.094-4.201 5.094-7.646s-2.103-6.397-5.094-7.646h0z" fill="#dbe8f9"/><path d="M24.754 16.759a.51.51 0 0 0-.514-.509h0c-.108-.002-.192-.069-.219-.163-.114-.406-.284-.8-.509-1.169a.51.51 0 0 1 .109-.159.51.51 0 0 0-.006-.721l-.825-.819a.51.51 0 0 0-.72-.001l-.017.016c-.069.065-.174.074-.257.027-.337-.19-.693-.334-1.058-.434-.095-.026-.162-.11-.165-.208v-.01c-.002-.283-.232-.511-.515-.51l-1.166.004c-.282.001-.509.232-.505.514-.002.108-.069.193-.163.219-.365.102-.719.249-1.055.441-.082.047-.187.039-.257-.026l-.017-.016a.51.51 0 0 0-.721.006l-.819.825c-.196.198-.201.526-.001.721.078.078.091.188.042.276-.189.336-.333.691-.432 1.055-.027.097-.115.164-.216.165h-.002 0c-.283.002-.511.232-.51.515l.004 1.162a.51.51 0 0 0 .514.51h0c.108.002.193.069.219.163.102.364.249.718.441 1.054.049.086.036.195-.033.266-.207.204-.2.532-.002.729l.825.82a.51.51 0 0 0 .721.001l.017-.016c.069-.065.174-.074.256-.027.337.19.693.334 1.058.434.095.026.162.11.165.208v.01a.51.51 0 0 0 .512.51l1.16-.004c.284-.001.514-.23.515-.514h0c.002-.108.069-.193.163-.219a4.67 4.67 0 0 0 1.055-.441c.082-.047.187-.039.257.026l.016.016a.51.51 0 0 0 .721-.006l.82-.825c.196-.198.201-.526.001-.721-.047-.046-.084-.1-.11-.158a4.67 4.67 0 0 0 .501-1.173c.026-.095.11-.162.208-.165h.01a.51.51 0 0 0 .51-.514l-.004-1.165zm-5.219 2.963a2.36 2.36 0 1 1 0-4.723 2.36 2.36 0 1 1 0 4.723h0z" fill="#ffe07d"/><path d="M19.535 20.175a2.82 2.82 0 0 1-2.814-2.814 2.82 2.82 0 0 1 2.814-2.814 2.82 2.82 0 0 1 2.814 2.814 2.82 2.82 0 0 1-2.814 2.814h0zm0-4.723a1.91 1.91 0 0 0-1.909 1.909 1.91 1.91 0 0 0 1.909 1.909 1.91 1.91 0 0 0 1.909-1.909 1.91 1.91 0 0 0-1.909-1.909z" fill="#ffc250"/></g><defs><clipPath id="A"><path fill="#fff" d="M0 0h30v30H0z"/></clipPath></defs></svg>