<?xml version="1.0" encoding="utf-8"?> <svg xmlns="http://www.w3.org/2000/svg" width="30" height="30" fill="none"  ><path d="M15 30a20.95 20.95 0 0 0 13.61-19.622V5.081A5.08 5.08 0 0 1 23.529 0H15 6.471A5.08 5.08 0 0 1 1.39 5.081v5.297A20.95 20.95 0 0 0 15 30z" fill="#ffdb0c"/><path d="M15 30a20.95 20.95 0 0 0 13.61-19.622V5.081A5.08 5.08 0 0 1 23.529 0H15v30z" fill="#fbbf00"/><path d="M13.104 20.29l-4.512-4.512 2.486-2.486 2.026 2.026L18.922 9.5l2.486 2.486-8.304 8.304z" fill="#f1f1f2"/><path d="M15 18.394v-4.972L18.922 9.5l2.486 2.486L15 18.394z" fill="#e6e6e6"/></svg>