<?xml version="1.0" encoding="utf-8"?> <svg xmlns="http://www.w3.org/2000/svg" xmlns:xlink="http://www.w3.org/1999/xlink" width="30" height="30" fill="none" ><g clip-path="url(#A)"><path d="M15 30c8.284 0 15-6.716 15-15S23.284 0 15 0 0 6.716 0 15s6.716 15 15 15z" fill="#54c0eb"/><path d="M15 26.25C8.813 26.25 3.75 21.188 3.75 15S8.813 3.75 15 3.75 26.25 8.813 26.25 15 21.188 26.25 15 26.25z" fill="#f2f2f2"/><path d="M15 22.5c-4.125 0-7.5-3.375-7.5-7.5s3.375-7.5 7.5-7.5 7.5 3.375 7.5 7.5-3.375 7.5-7.5 7.5z" fill="#ff7058"/><use xlink:href="#B" fill="#cdd6e0"/><use xlink:href="#B" fill="#ffd15c"/><path opacity=".2" d="M29.875 16.875a15.22 15.22 0 0 1-1.687 5.25l-.812-.312-1.062-2.25-11.25-4.062a.97.97 0 0 1-.562-1.25.97.97 0 0 1 1.25-.562L27 17.75l2.25-1.062.625.187z" fill="#334a5e"/><path d="M25.25 6.063l-9.187 9.188a.98.98 0 0 1-1.375 0 .98.98 0 0 1 0-1.375l9.25-9.125a.98.98 0 0 1 1.375 0c.313.375.313.938-.062 1.313z" fill="#40596b"/><path d="M26.125 3.875l-2.937 2.938V2.937L26.125 0v3.875z" fill="#ff7058"/><path d="M27.063 6.813L30 3.875h-3.875l-2.937 2.938h3.875z" fill="#f1543f"/></g><defs><clipPath id="A"><path fill="#fff" d="M0 0h30v30H0z"/></clipPath><path id="B" d="M15 18.75c-2.062 0-3.75-1.687-3.75-3.75s1.688-3.75 3.75-3.75 3.75 1.688 3.75 3.75-1.687 3.75-3.75 3.75z"/></defs></svg>