<svg width="24" height="11" viewBox="0 0 24 11" fill="white" xmlns="http://www.w3.org/2000/svg">
<path d="M14.5 0C12.6016 0 11 0.90625 10 2.40625V11H20.5C22.3984 11 24 9.39844 24 7.5C24 5.60156 22.3984 4 20.5 4C20.3008 4 20.0117 3.99219 19.8125 4.09375C19.2109 1.69531 17 0 14.5 0ZM8 2V11H9V2.09375C8.69922 1.99219 8.30078 2 8 2ZM7 2.09375C6.60156 2.19531 6.30078 2.39844 6 2.5V11H7V2.09375ZM5 3.40625C4.5 3.90625 4.19531 4.48828 4.09375 5.1875H4V11H5V3.40625ZM3 5C2.60156 5 2.30078 5.08594 2 5.1875V10.8125C2.30078 10.9141 2.60156 11 3 11V5ZM1 5.8125C0.398438 6.3125 0 7.10156 0 8C0 8.89844 0.398438 9.6875 1 10.1875V5.8125Z" fill="white"/>
</svg>
