<svg width="20" height="20" viewBox="0 0 20 20" fill="none" xmlns="http://www.w3.org/2000/svg">
<path d="M17.077 2.928C15.191 1.041 12.683 0.001 10.011 0C4.505 0 0.0240001 4.479 0.0220001 9.985C0.0210001 11.745 0.481 13.463 1.355 14.977L0 20L5.233 18.763C6.692 19.559 8.334 19.978 10.006 19.979H10.01C15.515 19.979 19.996 15.499 19.999 9.994C20.001 7.325 18.963 4.816 17.077 2.928ZM14.898 13.554C14.69 14.137 13.671 14.699 13.213 14.74C12.755 14.782 12.326 14.947 10.218 14.116C7.681 13.116 6.079 10.515 5.955 10.349C5.83 10.182 4.936 8.996 4.936 7.768C4.936 6.54 5.581 5.936 5.81 5.687C6.039 5.437 6.309 5.375 6.476 5.375C6.642 5.375 6.809 5.375 6.954 5.381C7.132 5.388 7.329 5.397 7.516 5.812C7.738 6.306 8.223 7.54 8.285 7.665C8.347 7.79 8.389 7.936 8.306 8.102C8.223 8.268 8.181 8.372 8.057 8.518C7.932 8.664 7.795 8.843 7.683 8.955C7.558 9.079 7.428 9.215 7.573 9.464C7.719 9.714 8.219 10.531 8.961 11.192C9.915 12.042 10.718 12.305 10.968 12.431C11.218 12.556 11.363 12.535 11.509 12.368C11.655 12.202 12.133 11.64 12.299 11.39C12.465 11.14 12.632 11.182 12.861 11.265C13.09 11.348 14.317 11.952 14.566 12.077C14.816 12.202 14.982 12.264 15.044 12.368C15.106 12.471 15.106 12.971 14.898 13.554Z" fill="white"/>
</svg>
