<svg id="Capa_1" enable-background="new 0 0 512 512" height="512" viewBox="0 0 512 512" width="512" xmlns="http://www.w3.org/2000/svg"><g><g><g><g><g><path d="m249.688 177.679-46.172-43.559c-5.721-5.398-14.735-5.135-20.133.586l-12.075 12.799c-5.398 5.721-5.135 14.735.586 20.133l46.172 43.559z" fill="#c9e0fd"/></g><g><path d="m415.788 177.679 46.172-43.559c5.721-5.398 14.735-5.135 20.133.586l12.075 12.799c5.398 5.721 5.135 14.735-.586 20.133l-46.172 43.559z" fill="#c9e0fd"/></g></g><g><g><g fill="#ffd064"><path d="m111.24 403.773h195.171v38.418h-195.171c-10.609 0-19.209-8.6-19.209-19.209 0-10.608 8.601-19.209 19.209-19.209z"/><path d="m69.102 330.534h237.31v38.418h-237.31c-10.609 0-19.209-8.6-19.209-19.209 0-10.609 8.6-19.209 19.209-19.209z"/><path d="m19.209 257.294h287.203v38.418h-287.203c-10.609 0-19.209-8.6-19.209-19.209 0-10.609 8.6-19.209 19.209-19.209z"/></g><g><g><g><path d="m302.891 62.2h62.062v69.193h-62.062z" fill="#eaf2ff"/><path d="m339.445 62.2v-18.417l-5.523-6.144h-42.265c-13.565 0-24.561 10.996-24.561 24.561 0 13.565 10.996 24.561 24.561 24.561h23.227c13.564.001 24.561-10.996 24.561-24.561z" fill="#e07f84"/><path d="m376.187 37.639h-42.265v24.561c0 13.565-10.996 24.561-24.561 24.561h66.826c13.565 0 24.561-10.996 24.561-24.561 0-13.565-10.997-24.561-24.561-24.561z" fill="#db636e"/></g></g><path d="m455.527 296.283c0-86.348-60.274-158.607-141.04-177.03-89.207 9.683-158.644 85.247-158.644 177.03s69.436 167.347 158.644 177.03c80.766-18.423 141.04-90.682 141.04-177.03z" fill="#e07f84"/><path d="m412.217 413.979c27.008-31.694 43.31-72.79 43.31-117.696s-16.302-86.002-43.31-117.696c-22.414-14.94-49.338-23.648-78.295-23.648-31.481 0-60.558 10.292-84.05 27.694-9.789 7.252-18.609 15.738-26.229 25.23-19.437 24.21-31.066 54.958-31.066 88.421 0 78.062 63.282 141.344 141.345 141.344 28.957-.001 55.881-8.709 78.295-23.649z" fill="#eaf2ff"/><path d="m333.922 118.204c-11.41 0-22.566 1.086-33.379 3.137 82.393 15.627 144.699 88.002 144.699 174.942s-62.306 159.315-144.699 174.942c10.814 2.051 21.969 3.137 33.379 3.137 98.35 0 178.078-79.729 178.078-178.079s-79.728-178.079-178.078-178.079z" fill="#db636e"/><path d="m388.328 165.796c35.004 32.518 56.913 78.94 56.913 130.487s-21.909 97.968-56.913 130.487c51.054-21.312 86.938-71.706 86.938-130.487s-35.884-109.175-86.938-130.487z" fill="#dbe8f9"/></g></g><path d="m422.472 286.017c-.017-4.823-3.948-8.715-8.771-8.683h-.004c-.056 0-.111 0-.167-.001-1.673-.027-3.118-1.171-3.57-2.782-1.945-6.933-4.841-13.653-8.683-19.958.436-.995 1.057-1.921 1.863-2.716 3.388-3.342 3.271-8.945-.106-12.299l-14.085-13.986c-3.4-3.377-8.957-3.457-12.298-.022-.093.096-.188.189-.284.279-1.182 1.108-2.967 1.262-4.379.468-5.756-3.234-11.824-5.704-18.057-7.406-1.616-.441-2.772-1.88-2.81-3.555-.001-.055-.002-.109-.002-.164v-.004c-.031-4.832-3.966-8.727-8.798-8.71l-19.908.07c-4.815.017-8.691 3.96-8.625 8.774 0 .055 0 .11-.001.165-.026 1.674-1.172 3.12-2.784 3.573-6.222 1.746-12.273 4.258-18.007 7.533-1.406.803-3.191.662-4.38-.438-.097-.09-.192-.182-.286-.277-3.365-3.412-8.921-3.294-12.298.107l-13.986 14.085c-3.353 3.377-3.431 8.981-.02 12.299.038.037.076.074.113.112 1.21 1.221 1.448 3.098.607 4.597-3.221 5.741-5.681 11.793-7.379 18.009-.453 1.658-1.967 2.803-3.686 2.813h-.033-.004c-4.832.032-8.727 3.967-8.71 8.798l.069 19.822c.017 4.827 3.944 8.727 8.771 8.71h.004c.055 0 .109 0 .164.001 1.675.026 3.122 1.173 3.574 2.785 1.744 6.215 4.253 12.26 7.522 17.987.842 1.475.616 3.325-.565 4.545-.046.047-.092.094-.139.141-3.388 3.34-3.268 8.945.108 12.297l14.085 13.986c3.401 3.377 8.957 3.456 12.298.021.093-.096.188-.189.284-.279 1.181-1.107 2.965-1.261 4.376-.468 5.757 3.235 11.825 5.705 18.06 7.407 1.615.441 2.771 1.879 2.809 3.553.001.055.002.11.002.165v.004c0 4.822 3.918 8.727 8.74 8.71l19.792-.069c4.842-.017 8.766-3.93 8.797-8.771v-.004c0-.053 0-.107.001-.16.025-1.677 1.174-3.126 2.789-3.579 6.219-1.745 12.267-4.256 17.998-7.529 1.409-.805 3.198-.663 4.388.439.095.088.188.178.28.271 3.367 3.412 8.922 3.297 12.3-.105l13.986-14.085c3.353-3.377 3.431-8.981.02-12.299-.812-.79-1.44-1.712-1.883-2.704 3.798-6.332 6.647-13.072 8.543-20.018.441-1.614 1.879-2.769 3.552-2.808.056-.001.111-.002.167-.002h.004c4.827-.017 8.727-3.944 8.71-8.771zm-89.075 50.569c-22.259 0-40.304-18.045-40.304-40.304s18.045-40.304 40.304-40.304 40.304 18.045 40.304 40.304c0 22.26-18.045 40.304-40.304 40.304z" fill="#ffe07d"/></g></g></g><g><path d="m333.396 344.313c-26.484 0-48.03-21.546-48.03-48.03s21.546-48.03 48.03-48.03 48.03 21.546 48.03 48.03c.001 26.484-21.546 48.03-48.03 48.03zm0-80.608c-17.963 0-32.577 14.614-32.577 32.577s14.615 32.577 32.577 32.577c17.963 0 32.577-14.614 32.577-32.577.001-17.963-14.614-32.577-32.577-32.577z" fill="#ffc250"/></g></g></svg>