<svg viewBox="0 0 24 24" fill="#000000" xmlns="http://www.w3.org/2000/svg">
                                        <path
                                            d="M12 2.982c2.937 0 3.285.011 4.445.064 1.072.05 1.655.228 2.043.379.513.2.88.438 1.264.823.385.385.624.751.823 1.265.15.387.33.97.379 2.042.053 1.16.064 1.508.064 4.445 0 2.937-.011 3.285-.064 4.445-.05 1.072-.228 1.655-.379 2.043-.2.513-.438.88-.823 1.264a3.408 3.408 0 01-1.264.823c-.388.15-.97.33-2.043.379-1.16.053-1.508.064-4.445.064-2.937 0-3.285-.011-4.445-.064-1.072-.049-1.655-.228-2.042-.379-.514-.2-.88-.438-1.265-.823a3.408 3.408 0 01-.823-1.264c-.15-.388-.33-.97-.379-2.043-.053-1.16-.064-1.508-.064-4.445 0-2.937.011-3.285.064-4.445.049-1.072.228-1.655.379-2.042.2-.514.438-.88.823-1.265a3.408 3.408 0 011.265-.823c.387-.15.97-.33 2.042-.379 1.16-.053 1.508-.064 4.445-.064zM12 1c-2.987 0-3.362.013-4.535.066-1.171.054-1.97.24-2.67.512a5.392 5.392 0 00-1.949 1.268 5.392 5.392 0 00-1.269 1.949c-.271.7-.457 1.499-.51 2.67C1.012 8.638 1 9.013 1 12c0 2.988.013 3.362.066 4.535.054 1.171.24 1.97.511 2.67a5.392 5.392 0 001.27 1.949 5.392 5.392 0 001.948 1.268c.7.273 1.499.458 2.67.512C8.638 22.987 9.013 23 12 23s3.362-.013 4.535-.066c1.171-.054 1.97-.24 2.67-.512a5.391 5.391 0 001.949-1.268 5.391 5.391 0 001.268-1.948c.272-.7.458-1.5.512-2.67.053-1.174.066-1.549.066-4.536 0-2.987-.013-3.362-.066-4.535-.054-1.171-.24-1.97-.512-2.67a5.39 5.39 0 00-1.268-1.949 5.391 5.391 0 00-1.949-1.268c-.7-.272-1.499-.458-2.67-.512C15.362 1.013 14.987 1 12 1zm0 5.351a5.649 5.649 0 100 11.298A5.649 5.649 0 0012 6.35zm0 9.316a3.667 3.667 0 110-7.334 3.667 3.667 0 010 7.334zm7.192-9.539a1.32 1.32 0 11-2.64 0 1.32 1.32 0 012.64 0z">
                                        </path>
                                    </svg>