<svg xmlns="http://www.w3.org/2000/svg" xmlns:xlink="http://www.w3.org/1999/xlink" viewBox="0 0 36 36" fill="#ebc505"><path d="M5,20.2796526 L5,23 L19,23 L19,18.4200749 L17.9352687,17.3138445 L12.7432016,20.9101334 L9.2818236,17.3138445 L5,20.2796526 Z M5,18.118552 L9.50234433,15 L12.9637224,18.5962889 L18.1557894,15 L19,15.8771146 L19,5 L5,5 L5,18.118552 Z M21,13 L21,25 L17,25 L17,31 L31,31 L31,13 L21,13 Z M21,11 L33,11 L33,33 L15,33 L15,25 L3,25 L3,3 L21,3 L21,11 Z M16,13 C14.8954305,13 14,12.1045695 14,11 C14,9.8954305 14.8954305,9 16,9 C17.1045695,9 18,9.8954305 18,11 C18,12.1045695 17.1045695,13 16,13 Z"></path></svg>