<svg width="20" height="16" viewBox="0 0 20 16" fill="white" xmlns="http://www.w3.org/2000/svg">
<path d="M17.229 2.01199C16.326 1.28199 15.214 0.765991 14.357 0.439991C14.05 0.322991 13.704 0.363991 13.434 0.550991C13.162 0.736991 13 1.04499 13 1.37399C13 1.71999 12.72 1.99999 12.374 1.99999C10.801 1.99999 9.198 1.99999 7.625 1.99999C7.28 1.99999 7 1.71999 7 1.37499C7 1.04599 6.838 0.736991 6.567 0.550991C6.296 0.363991 5.95 0.322991 5.643 0.440991C4.783 0.769991 3.665 1.29099 2.749 2.03099C1.831 2.88199 0 7.86099 0 12.165C0 12.241 0.0189999 12.315 0.0569999 12.381C1.322 14.614 4.771 15.198 5.556 15.223C5.561 15.224 5.565 15.224 5.57 15.224C5.709 15.224 5.856 15.168 5.921 15.044L6.704 13.559C6.058 13.395 5.391 13.2 4.664 12.942C4.143 12.757 3.872 12.185 4.057 11.665C4.242 11.145 4.815 10.874 5.334 11.058C8.86 12.312 10.958 12.311 14.679 11.053C15.204 10.878 15.771 11.157 15.947 11.68C16.124 12.203 15.843 12.771 15.32 12.948C14.592 13.194 13.928 13.382 13.285 13.542L14.078 15.045C14.143 15.169 14.291 15.225 14.429 15.225C14.434 15.225 14.438 15.225 14.443 15.224C15.229 15.199 18.678 14.614 19.942 12.381C19.981 12.315 20 12.241 20 12.164C20 7.86099 18.169 2.88199 17.229 2.01199ZM7.04 9.98799C6.211 9.98799 5.54 9.09499 5.54 7.99199C5.54 6.88999 6.211 5.99599 7.04 5.99599C7.872 5.88599 8.522 6.88899 8.54 7.99199C8.54 9.09499 7.869 9.98799 7.04 9.98799ZM12.996 10.012C12.167 10.012 11.496 9.11699 11.496 8.01199C11.496 6.90699 12.167 6.01199 12.996 6.01199C13.825 6.01199 14.496 6.90699 14.496 8.01199C14.496 9.11699 13.825 10.012 12.996 10.012Z" fill="#535fee"/>
</svg>
