 <svg id="SvgjsSvg1001" width="288" height="288" xmlns="http://www.w3.org/2000/svg" version="1.1" xmlns:xlink="http://www.w3.org/1999/xlink" xmlns:svgjs="http://svgjs.com/svgjs"><defs id="SvgjsDefs1002"></defs><g id="SvgjsG1008" transform="matrix(1,0,0,1,0,0)"><svg xmlns="http://www.w3.org/2000/svg" width="288" height="288" version="1.0" viewBox="0 0 900 520"><g transform="matrix(.1 0 0 -.1 0 520)" fill="#ffffff" class="color000 svgShape"><path d="M4935 4684 c-204 -29 -355 -86 -495 -190 -100 -73 -1721 -1706 -1743-1756 -25 -54 -25 -143 0 -199 24 -53 87 -112 139 -130 59 -20 144 -16 195 9
32 15 273 251 874 852 778 779 834 834 900 866 189 92 389 64 551 -77 72 -64
113 -82 184 -82 95 0 176 50 223 138 30 56 30 164 0 220 -66 124 -288 267
-496 320 -94 23 -264 39 -332 29z" fill="white" class="color000 svgShape"></path><path d="M3578 4621c-85-27-144-66-232-150-258-249-1188-1205-1225-1259-353-520-164-1216 401-1477 140-64 222-80 413-79 154 1 178 3 256 27 249 76 275 96 844 669 1338 1346 1225 1222 1225 1343 0 169-154 281-322 235-29-9-191-166-875-851-824-827-839-841-918-880-281-138-602 6-690 309-19 65-22 190-5 253 14 54 64 154 98 194 13 17 361 370 773 786l748 756-22 21c-116 107-318 151-469 103zM5908 3620c-68-12-154-38-232-71-159-68-181-88-1078-986l-847-848-16-59c-44-153 58-301 218-313 124-10 78-51 995 869 874 876 861 865 994 905 71 21 202 20 270-2 214-70 350-254 350-475 0-92-18-160-63-245-33-62-130-162-1182-1221l-389-391 44-35c97-79 201-112 332-106 100 5 173 28 247 78 41 27 314 299 996 990 309 314 368 387 433 540 218 514-31 1109-552 1316-142 56-367 80-520 54z" fill="#ffffff" class="color000 svgShape"></path><path d="M5981 2874 c-24 -9 -62 -35 -85 -58 -22 -23 -397 -399 -833 -837
-858 -862 -834 -841 -979 -875 -119 -28 -262 -5 -361 59 -28 17 -79 53 -112
79 -78 59 -144 77 -220 58 -156 -37 -236 -208 -163 -351 48 -95 234 -229 408
-295 303 -114 659 -64 921 130 55 40 461 446 1439 1436 149 151 279 290 289
309 41 82 27 201 -32 272 -63 75 -180 106 -272 73z" fill="white" class="color000 svgShape"></path></g></svg></g></svg>