<svg width="28" height="36" viewBox="0 0 27 36" fill="none" xmlns="http://www.w3.org/2000/svg">
<g filter="url(#filter0_d)">
<path d="M13.4999 33.5323C13.3311 33.5323 13.196 33.495 13.0274 33.4576C5.36632 31.0357 0 23.2117 0 14.3817V5.58884C0 4.76905 0.506357 4.0239 1.21499 3.80035L13.0364 0.0717211C13.3394 -0.023907 13.6605 -0.023907 13.9636 0.0717211L25.785 3.80035C26.4936 4.0239 27 4.76905 27 5.58884V14.3817C27 23.2117 21.6337 31.0357 13.9726 33.4576C13.8036 33.495 13.6685 33.5323 13.4999 33.5323Z" fill="url(#paint0_angular)"/>
<path d="M13.0815 0.214774L13.0815 0.214764C13.3551 0.128414 13.6448 0.128409 13.9185 0.214769L13.9185 0.214774L25.7399 3.9434C26.3778 4.14464 26.85 4.8254 26.85 5.58884V14.3817C26.85 23.1521 21.5215 30.9105 13.9337 33.3126C13.91 33.3179 13.8875 33.323 13.8658 33.3279C13.7283 33.3591 13.6261 33.3823 13.4999 33.3823C13.3734 33.3823 13.2711 33.359 13.1335 33.3278C13.112 33.3229 13.0897 33.3178 13.0664 33.3126C5.47851 30.9106 0.15 23.1522 0.15 14.3817V5.58884C0.15 4.82541 0.622175 4.14465 1.26011 3.9434C1.26011 3.9434 1.26011 3.9434 1.26012 3.9434L13.0815 0.214774Z" stroke="#5E5E5E" stroke-width="0.3"/>
</g>
<path d="M8.59927 15.0607C8.75728 15.2974 9.02148 15.4348 9.29895 15.4348C9.35349 15.4348 9.40853 15.4295 9.46336 15.4187C9.79721 15.3522 10.0583 15.0912 10.1246 14.7573L11.0622 10.0436C11.1057 9.82462 11.0606 9.59735 10.9365 9.41174C10.8125 9.22613 10.6198 9.09738 10.4009 9.05384L5.68724 8.11622C5.35313 8.04971 5.01226 8.19108 4.82322 8.47412C4.63407 8.75716 4.63407 9.12631 4.82322 9.40935L6.42124 11.8009C5.17805 13.3819 4.5 15.3312 4.5 17.3588C4.5 20.9376 6.61944 24.1762 9.89946 25.6094C10.0092 25.6573 10.1235 25.6801 10.236 25.6801C10.5604 25.6801 10.8695 25.4914 11.0077 25.1752C11.1938 24.7492 10.9994 24.253 10.5735 24.0669C7.90668 22.9016 6.18345 20.2685 6.18345 17.3588C6.18345 15.8985 6.61625 14.4884 7.41742 13.292L8.59927 15.0607Z" fill="#5286FA"/>
<path d="M20.5793 22.9163C21.8221 21.3353 22.5 19.3862 22.5 17.3589C22.5 13.7801 20.3806 10.5415 17.1005 9.1082C16.6746 8.92212 16.1784 9.11652 15.9922 9.54245C15.8061 9.96839 16.0005 10.4646 16.4265 10.6508C19.0933 11.8161 20.8165 14.4492 20.8165 17.3589C20.8165 18.8189 20.3838 20.2289 19.5829 21.4252L18.4012 19.6568C18.2121 19.3737 17.8712 19.2323 17.5372 19.2989C17.2033 19.3653 16.9423 19.6263 16.8759 19.9601L15.9382 24.6739C15.8947 24.8928 15.9398 25.1201 16.0639 25.3057C16.1879 25.4913 16.3806 25.62 16.5996 25.6636L21.3134 26.6011C21.3682 26.612 21.4232 26.6173 21.4777 26.6173C21.4861 26.6173 21.4945 26.6172 21.5029 26.617C21.9565 26.6042 22.3204 26.2324 22.3204 25.7757C22.3204 25.588 22.2589 25.4147 22.1551 25.2747L20.5793 22.9163Z" fill="#5286FA"/>
<defs>
<filter id="filter0_d" x="0" y="0" width="27" height="35.5323" filterUnits="userSpaceOnUse" color-interpolation-filters="sRGB">
<feFlood flood-opacity="0" result="BackgroundImageFix"/>
<feColorMatrix in="SourceAlpha" type="matrix" values="0 0 0 0 0 0 0 0 0 0 0 0 0 0 0 0 0 0 127 0"/>
<feOffset dy="2"/>
<feColorMatrix type="matrix" values="0 0 0 0 0.795833 0 0 0 0 0.795833 0 0 0 0 0.795833 0 0 0 0.16 0"/>
<feBlend mode="normal" in2="BackgroundImageFix" result="effect1_dropShadow"/>
<feBlend mode="normal" in="SourceGraphic" in2="effect1_dropShadow" result="shape"/>
</filter>
<radialGradient id="paint0_angular" cx="0" cy="0" r="1" gradientUnits="userSpaceOnUse" gradientTransform="translate(13.5 16.7661) rotate(-136.42) scale(18.6357 11.5741)">
<stop offset="0.18409" stop-color="white"/>
<stop offset="0.493462" stop-color="#B5B5B5" stop-opacity="0.23"/>
<stop offset="0.813285" stop-color="white" stop-opacity="0.73749"/>
</radialGradient>
</defs>
</svg>
