<svg width="30" height="38" viewBox="0 0 30 38" fill="none" xmlns="http://www.w3.org/2000/svg">
<path d="M14.9999 37.2581C14.8124 37.2581 14.6623 37.2167 14.4749 37.1751C5.96257 34.4842 0 25.7908 0 15.9796V6.20983C0 5.29894 0.562619 4.47099 1.34999 4.22261L14.4849 0.0796901C14.8215 -0.0265634 15.1784 -0.0265634 15.5151 0.0796901L28.65 4.22261C29.4374 4.47099 30 5.29894 30 6.20983V15.9796C30 25.7908 24.0374 34.4842 15.5251 37.1751C15.3374 37.2167 15.1872 37.2581 14.9999 37.2581Z" fill="#A0A4FF" fill-opacity="0.5"/>
<path d="M25.4617 16.5844L8.57278 7.13444C8.24556 6.95174 7.84656 6.95594 7.52356 7.14284C7.19844 7.33184 7 7.67624 7 8.05004V26.95C7 27.3238 7.19844 27.6682 7.52356 27.8572C7.68822 27.9517 7.87189 28 8.05556 28C8.23289 28 8.41233 27.9559 8.57278 27.8656L25.4617 18.4156C25.7931 18.2287 26 17.8801 26 17.5C26 17.1199 25.7931 16.7713 25.4617 16.5844Z" fill="url(#paint0_linear)"/>
<defs>
<linearGradient id="paint0_linear" x1="6.86231" y1="28" x2="24.08" y2="14.5205" gradientUnits="userSpaceOnUse">
<stop offset="0.51875" stop-color="#F19E9E"/>
<stop offset="0.731712" stop-color="#E92EFA" stop-opacity="0.75"/>
</linearGradient>
</defs>
</svg>
